<?xml version="1.0" standalone="no"?>
<!DOCTYPE svg PUBLIC "-//W3C//DTD SVG 20010904//EN"
 "http://www.w3.org/TR/2001/REC-SVG-20010904/DTD/svg10.dtd">
<svg version="1.0" xmlns="http://www.w3.org/2000/svg"
 width="148.000000pt" height="148.000000pt" viewBox="0 0 148.000000 148.000000"
 preserveAspectRatio="xMidYMid meet">
<metadata>
Created by potrace 1.14, written by Peter Selinger 2001-2017
</metadata>
<g transform="translate(0.000000,148.000000) scale(0.100000,-0.100000)"
fill="#000000" stroke="none">
<path d="M650 1220 c0 -5 -9 -10 -20 -10 -16 0 -20 -7 -20 -30 0 -16 5 -30 10
-30 6 0 10 -13 10 -30 0 -16 -4 -30 -10 -30 -5 0 -10 -13 -10 -30 0 -16 5 -30
10 -30 14 0 12 -37 -2 -43 -10 -4 -10 -8 1 -15 12 -9 9 -16 -17 -40 -18 -17
-32 -35 -32 -42 0 -6 -7 -19 -16 -27 -13 -14 -17 -14 -25 -2 -8 12 -10 12 -19
-1 -9 -13 -11 -13 -20 0 -9 13 -11 13 -19 0 -8 -12 -13 -11 -29 8 -11 12 -27
22 -36 22 -9 0 -16 5 -16 10 0 6 -9 10 -20 10 -13 0 -20 7 -20 20 0 16 -7 20
-35 20 -38 0 -85 -36 -85 -65 0 -8 -9 -15 -20 -15 -11 0 -20 -4 -20 -10 0 -5
-18 -10 -40 -10 -22 0 -40 -4 -40 -10 0 -5 18 -10 40 -10 22 0 40 -4 40 -10 0
-5 9 -10 20 -10 11 0 20 -4 20 -10 0 -5 25 -10 56 -10 54 0 84 -14 84 -40 0
-20 28 -40 54 -40 22 0 26 -4 26 -30 0 -23 4 -30 20 -30 11 0 20 -4 20 -10 0
-6 29 -10 66 -10 56 0 70 4 85 22 11 11 22 18 26 14 4 -4 1 -11 -6 -16 -12 -7
-11 -11 4 -27 13 -13 20 -14 23 -5 7 23 22 12 22 -17 0 -16 6 -32 13 -35 10
-5 10 -7 0 -12 -7 -3 -13 -14 -13 -25 0 -10 -4 -19 -10 -19 -5 0 -10 -13 -10
-30 0 -16 5 -30 10 -30 6 0 10 -22 10 -50 0 -27 5 -50 10 -50 6 0 10 -9 10
-20 0 -13 -7 -20 -20 -20 -11 0 -20 -4 -20 -10 0 -5 -9 -10 -20 -10 -15 0 -20
-7 -20 -26 0 -39 22 -54 80 -54 53 0 80 15 80 44 0 9 8 16 20 16 13 0 20 7 20
20 0 11 -4 20 -10 20 -5 0 -10 23 -10 50 0 28 -4 50 -10 50 -5 0 -10 9 -10 19
0 11 -5 21 -12 23 -16 6 35 58 57 58 8 0 15 5 15 10 0 6 9 10 20 10 11 0 20 5
20 10 0 6 9 10 20 10 13 0 20 -7 20 -18 0 -10 9 -24 20 -32 11 -8 20 -21 20
-30 0 -9 9 -22 20 -30 17 -12 20 -26 20 -82 0 -61 -2 -68 -20 -68 -17 0 -20
-7 -20 -40 l0 -40 80 0 80 0 0 50 c0 28 -4 50 -10 50 -6 0 -10 30 -10 70 0 40
-4 70 -10 70 -5 0 -10 9 -10 20 0 11 -4 20 -10 20 -6 0 -10 43 -10 110 0 103
-1 110 -20 110 -11 0 -20 5 -20 10 0 6 5 10 10 10 6 0 10 7 10 16 0 9 14 29
30 44 18 17 30 38 30 54 0 14 5 26 10 26 6 0 10 27 10 60 0 33 -4 60 -10 60
-5 0 -10 7 -10 15 0 29 -47 65 -85 65 -19 0 -35 -4 -35 -10 0 -5 -16 -10 -35
-10 -38 0 -85 36 -85 65 0 8 -7 15 -16 15 -9 0 -29 14 -44 30 -21 23 -37 30
-64 30 -20 0 -36 5 -36 10 0 6 -9 10 -20 10 -11 0 -20 5 -20 10 0 6 -9 10 -20
10 -11 0 -20 -4 -20 -10z"/>
</g>
</svg>
